<svg xmlns="http://www.w3.org/2000/svg" viewBox="0 0 1024.5 1024.5"><path d="M512.22 0c-222 0-402.62 180.61-402.62 402.62 0 27.63 2.8 55.21 8.32 82.04.11 1.39.33 2.79.64 4.19 46.05 207.1 166 390.7 337.47 516.8a93.32 93.32 0 0056.59 18.85 94.41 94.41 0 0046.72-12.4c.96-.54 1.9-1.15 2.8-1.8l12.43-9.1c166.89-125.14 284.2-305.43 330.3-507.65.3-1.34.51-2.7.62-4.06a401.93 401.93 0 009.41-86.87C914.9 180.62 734.26 0 512.22 0zm333.63 479.95a29.61 29.61 0 00-.65 4.12C801.66 670.81 692.83 837.2 538.6 952.83l-10.4 7.63A34.21 34.21 0 01492 957.3c-158.97-116.9-270.3-286.46-313.79-477.8-.11-1.21-.3-2.42-.56-3.64a346.3 346.3 0 01-7.8-73.24c0-188.77 153.58-342.35 342.36-342.35 188.81 0 342.41 153.58 342.41 342.35 0 26.33-2.95 52.35-8.78 77.33z"/><path d="M512.23 230.28c-95.02 0-172.3 77.31-172.3 172.33 0 95 77.28 172.28 172.3 172.28 95.03 0 172.34-77.28 172.34-172.28 0-95.02-77.31-172.33-172.35-172.33zm0 284.35c-61.78 0-112.04-50.26-112.04-112.02 0-61.8 50.26-112.06 112.04-112.06 61.8 0 112.08 50.27 112.08 112.06 0 61.76-50.28 112.02-112.08 112.02z"/></svg>