<svg aria-hidden="true" style="position:absolute;width:0;height:0" xmlns="http://www.w3.org/2000/svg" overflow="hidden"><defs><symbol id="icon-antenna" viewBox="0 0 32 32"><path fill="var(--color1, #212121)" d="M30.77 22.1l-8.44-8.5.94-4.62c.22.09.48.14.75.14h.04a2.16 2.16 0 10-2.03-1.42V7.7l-4.97.6L8.97.16A.53.53 0 008.6 0a.54.54 0 00-.38.16l-1.5 1.5a.54.54 0 000 .75l.8.83a14.9 14.9 0 002.52 17.66.49.49 0 00.15.1 2.99 2.99 0 00-.05.54v6.2h-6.4a2.67 2.67 0 00-2.67 2.66v1.07c0 .3.24.53.54.53h24.53a.53.53 0 00.53-.53V30.4a2.67 2.67 0 00-2.66-2.67h-6.4V25a14.64 14.64 0 003.04.32 14.78 14.78 0 007.12-1.82l-.07.04.81.82a.53.53 0 00.38.16.54.54 0 00.37-.15l1.52-1.5a.54.54 0 000-.76zM23.28 6.23a1.07 1.07 0 11.75 1.83 1.07 1.07 0 01-.75-1.83zm-1.26 3.5l-.6 2.95-1.17-1.18 1.78-1.76zm-.6-.9l-1.92 1.91L18 9.25l3.4-.41zM24 28.8a1.6 1.6 0 011.6 1.6v.53H2.14v-.53a1.6 1.6 0 011.6-1.6H24zm-7.46-2.13v1.06H11.2v-1.06h5.34zM11.2 25.6v-4.05c0-1.3 1.2-2.35 2.67-2.35s2.67 1.05 2.67 2.35v4.05H11.2zm6.4-1.7v-2.35c0-1.89-1.67-3.42-3.73-3.42h-.06a3.8 3.8 0 00-3.21 1.78v.01a13.82 13.82 0 01-3.82-9.55c0-2.31.57-4.5 1.57-6.41l-.04.07 18.6 18.71a13.63 13.63 0 01-9.4 1.15l.1.02zm11.3-.68L7.83 2.04l.75-.75 7.93 7.98h.01l13.12 13.2-.76.75z"/><path fill="var(--color2, #2196f3)" d="M13.88 20.27h-.01a1.6 1.6 0 000 3.2 1.6 1.6 0 000-3.2zm.37 1.97a.53.53 0 11-.38-.9.53.53 0 01.37.9z"/></symbol><symbol id="icon-astronaut" viewBox="0 0 32 32"><path fill="var(--color2, #2196f3)" d="M31.97 4.52a.54.54 0 00-.42-.36l-1.92-.28-.85-1.73c-.18-.36-.78-.36-.96 0l-.85 1.73-1.91.28a.53.53 0 00-.3.91l1.38 1.35-.32 1.9a.53.53 0 00.77.56l1.71-.9 1.7.9a.53.53 0 00.78-.56l-.32-1.9 1.38-1.35a.54.54 0 00.13-.55zm-2.46 1.33a.53.53 0 00-.15.47l.19 1.12-1-.53a.53.53 0 00-.5 0l-1 .53.2-1.12a.53.53 0 00-.16-.47l-.81-.79 1.12-.16a.53.53 0 00.4-.3l.5-1 .5 1a.53.53 0 00.4.3l1.12.16-.8.8zm-3.38 14.67h-1.06v1.07h1.06v-1.07zm0 2.14h-1.06v1.06h1.06v-1.06zm1.07-1.07h-1.07v1.07h1.07v-1.07zm-2.13 0H24v1.07h1.07v-1.07zm-2.67 4.8h-1.07v1.07h1.07v-1.07zm0 2.13h-1.07v1.07h1.07v-1.07zm1.07-1.06H22.4v1.06h1.07v-1.06zm-2.14 0h-1.06v1.06h1.06v-1.06zM16 24.26h-1.07v1.06H16v-1.06zm0 2.13h-1.07v1.07H16v-1.07zm1.07-1.07H16v1.07h1.07v-1.07zm-2.14 0h-1.06v1.07h1.06v-1.07zM5.87 6.12H4.8V7.2h1.07V6.12zm0 2.14H4.8v1.06h1.07V8.26zm1.06-1.07H5.87v1.07h1.06V7.19zm-2.13 0H3.73v1.07H4.8V7.19z"/><path fill="var(--color1, #212121)" d="M24.71 14.16a1.77 1.77 0 00-1.17-.7h-.01a1.77 1.77 0 00-1.35.35l-1.25.96-1.9 1.42-1.35-.55A6.94 6.94 0 0014.83 2.4a6.95 6.95 0 00-6.96 6.93c0 1.39.41 2.68 1.12 3.76l-2.77-.02H6.2a.51.51 0 00-.16.04h-.03l-.02.02-3.24 1.6-1.9.9a.43.43 0 00-.05.04 1.78 1.78 0 00-.6 2.3c.22.42.59.73 1.04.88h.01a1.77 1.77 0 001.4-.13h-.02l1.39-.73 2.26-1.17 1.36-.01L2.2 22.2.86 23.55a1.64 1.64 0 00-.5 1.17 1.67 1.67 0 001.68 1.67 1.67 1.67 0 001.18-.49l1.31-1.3 1.74-1.3.9.9-3.1 3.08a1.65 1.65 0 00-.49 1.17 1.66 1.66 0 001.67 1.67 1.67 1.67 0 001.18-.48l4.49-4.48.02-.01 5.17-5.66 3.47.5a.47.47 0 00.26-.04l.05-.02c.02-.01.04-.01.05-.03l3.22-2.13.03-.03.04-.03 1.27-1.19a1.77 1.77 0 00.2-2.36h.01zM2.14 17.77a.7.7 0 01-.56.05.72.72 0 01-.21-1.26l1.31-.63.32.92.13.4-.99.52zm3.5-1.83l-1.55.8-.26-.74-.18-.54 2.03-1-.04 1.48zm15.1-6.62a5.8 5.8 0 01-.6 2.56l-4.18-1.9a1.86 1.86 0 00-.79-1.38l1.46-4.86a5.88 5.88 0 014.1 5.58zm-11.8 0a5.89 5.89 0 016.65-5.81l-1.44 4.75h-.05a1.87 1.87 0 00-1.88 1.86A1.87 1.87 0 0014.1 12c.7 0 1.3-.38 1.62-.94l3.86 1.75a5.9 5.9 0 01-4.74 2.39 5.89 5.89 0 01-5.9-5.87zm5.96.8a.8.8 0 01-.8.8.8.8 0 01-.8-.8c0-.44.35-.8.8-.8s.8.36.8.8zM2.46 25.15a.6.6 0 01-.85 0 .6.6 0 010-.85l.96-.96.85.85-.96.96zm3.22 3.73a.6.6 0 01-.86 0 .6.6 0 010-.84l.97-.96.85.85-.96.95zm3.48-3.47l-1.77 1.76-.85-.85 1.77-1.75a.53.53 0 00.09-.14l.02-.04c.02-.04.02-.08.03-.13l.01-.07-.02-.1c0-.04 0-.07-.02-.1a.54.54 0 00-.09-.14l-.02-.04-1.61-1.6-.06-.04a.56.56 0 00-.08-.05.45.45 0 00-.1-.04.5.5 0 00-.1-.02h-.03a.6.6 0 00-.07 0l-.1.03a.5.5 0 00-.1.04l-.06.03-1.77 1.33-.9-.9 2.4-2.39 4.36 4.3-.93.91zm6.82-7.02h-.07a.56.56 0 00-.1.01.48.48 0 00-.18.07.53.53 0 00-.08.07l-.04.02-4.7 5.15-4.33-4.26 2.84-2.81a.54.54 0 00-.38-.92l-2.22.02.03-1.6 3.1.02a6.93 6.93 0 004.98 2.1c.44 0 .86-.05 1.28-.12l.13.08 2.4.96.16.76.18.89-3-.43zm4.04.18l-.31-1.56 1.44-1.08.95 1.26-2.08 1.38zm3.75-2.83l-.83.79-.94-1.24.84-.64a.73.73 0 01.54-.14.72.72 0 01.62.7.71.71 0 01-.23.53z"/><path fill="var(--color1, #212121)" d="M13.6 18.54l-2.14-2.13a.53.53 0 00-.75 0l-2.15 2.13a.54.54 0 000 .76l2.15 2.13a.53.53 0 00.75 0l2.14-2.13a.53.53 0 000-.76zm-2.52 1.76L9.7 18.92l1.38-1.38 1.39 1.38-1.39 1.38zm6.08-15.23l-.25 1.04c.07.02 1.73.45 1.73 2.15h1.07c0-2.02-1.66-2.97-2.55-3.19zm2.55 4.25h-1.07v1.07h1.07V9.32z"/></symbol><symbol id="icon-clock" viewBox="0 0 32 32"><path fill="var(--color1, #212121)" d="M31.3 15.3a15.3 15.3 0 10-20.07 14.55l.1.03a.67.67 0 00.53-.06.64.64 0 00.29-.36L16 17.21a1.91 1.91 0 10-.85-3.63h.01l-5.1-5.11a.64.64 0 00-.9.9l5.1 5.11a1.87 1.87 0 00.53 2.3v.01l-3.68 11.67a14.04 14.04 0 1110.66-.38l-.1.03-.39-1.87a.64.64 0 00-1.05-.34l-3.83 3.42a.64.64 0 00.22 1.09l4.9 1.56a.64.64 0 00.83-.74l-.4-1.84a15.29 15.29 0 009.33-14.06v-.03zM16 14.66a.64.64 0 010 1.28.64.64 0 010-1.28zm2.1 14.87l2.18-1.95.6 2.84-2.79-.9z"/><path fill="var(--color2, #2196f3)" d="M15.35 3.19v1.27a.64.64 0 001.28 0V3.19a.64.64 0 10-1.28 0zM3.88 14.66a.64.64 0 000 1.28h1.27a.64.64 0 000-1.28H3.88zm24.23 1.28a.64.64 0 000-1.28h-1.28a.64.64 0 000 1.28h1.28z"/></symbol><symbol id="icon-diagram" viewBox="0 0 32 32"><path fill="var(--color2, #2196f3)" d="M14.93 14.96h1.06v4.8h-1.06v-4.8zm4.26 2.14h1.07v2.66h-1.07V17.1zm-8.53 1.6h1.07v1.06h-1.07V18.7zm-3.2-.54h1.07v1.6H7.46v-1.6z"/><path fill="var(--color1, #212121)" d="M1.6 28.3h25.58a1.6 1.6 0 001.6-1.6v-2.14a1.6 1.6 0 00-1.6-1.6h-.53V9.66l3.03-2.86a1.6 1.6 0 10-.74-.75v-.01L26.64 8.2V6.97a1.6 1.6 0 00-1.6-1.6H3.73a1.6 1.6 0 00-1.6 1.6v16H1.6A1.6 1.6 0 000 24.55v2.13a1.6 1.6 0 001.6 1.6zM30.38 4.83a.53.53 0 010 1.06.53.53 0 010-1.06zM3.2 6.97c0-.3.24-.53.53-.53h21.32c.3 0 .54.23.54.53V9.2l-1.07 1.01V8.04A.53.53 0 0024 7.5H4.79a.53.53 0 00-.53.53v13.33c0 .3.24.54.54.54h19.19a.53.53 0 00.53-.54V11.7l1.07-1.01v12.28H3.19v-16zM8 13.9a1.6 1.6 0 101.1 2.75l1.86.93a.54.54 0 00.63-.12l3.94-4.44 3.87 2.9a.53.53 0 00.69-.03l3.36-3.2v8.14H5.33V8.57h18.12v2.66l-3.77 3.57-3.9-2.93a.53.53 0 00-.72.07l-4 4.5-1.49-.75c.02-.06.02-.12.02-.19A1.6 1.6 0 008 13.9zm.53 1.6a.53.53 0 01-1.07 0 .53.53 0 011.07 0zm3.2 8.53h5.33v.53a.53.53 0 01-.54.53h-4.26a.53.53 0 01-.53-.53v-.53zm-10.66.53c0-.3.24-.53.53-.53h9.06v.53a1.6 1.6 0 001.6 1.6h4.27a1.6 1.6 0 001.6-1.6v-.53h9.06c.3 0 .53.24.53.53v2.13a.53.53 0 01-.53.54H1.6a.53.53 0 01-.53-.54v-2.13z"/></symbol><symbol id="icon-homephone" viewBox="0 0 32 32"><path d="M27.42 20.85l-4.2-.48a3.28 3.28 0 00-2.71.94l-3.05 3.05A25.07 25.07 0 016.62 13.6l-.06-.14 3.06-3.06a3.28 3.28 0 00.94-2.73v.02l-.48-4.17A3.31 3.31 0 006.8.59H3.93a3.28 3.28 0 00-3.3 3.42A28.11 28.11 0 0026.9 30.3a3.29 3.29 0 003.42-3.31V24.1a3.28 3.28 0 00-2.9-3.26z"/></symbol><symbol id="icon-mail" viewBox="0 0 32 32"><path d="M28 4H4a3 3 0 00-2.99 3L1 25a3 3 0 003 3h24a3 3 0 003-3V7a3 3 0 00-3-3zm-.6 6.38L16.8 17a1.5 1.5 0 01-1.6 0L4.6 10.37a1.27 1.27 0 111.35-2.15L16 14.5l10.05-6.29a1.27 1.27 0 111.35 2.16z"/></symbol><symbol id="icon-men" viewBox="0 0 32 32"><path d="M16 16a8 8 0 000-16 8 8 0 000 16zm0 4c-5.34 0-16 2.68-16 8v2c0 1.1.9 2 2 2h28a2 2 0 002-2v-2c0-5.32-10.66-8-16-8z"/></symbol><symbol id="icon-send" viewBox="0 0 32 32"><path fill="var(--color3, #fff)" d="M32 0L0 18l10.23 3.79L26 7 14 23.19h.01H14V32l5.74-6.7L27 28l5-28z"/></symbol><symbol id="icon-email" viewBox="0 0 43 32"><path d="M38.67 0H4a4 4 0 00-4 4v24a4 4 0 004 4h34.67a4 4 0 004-4V4a4 4 0 00-4-4zm0 2.67c.18 0 .35.03.5.1L21.34 18.24 3.5 2.77c.15-.06.33-.1.51-.1h34.67zm0 26.66H4A1.33 1.33 0 012.67 28V5.59L20.46 21a1.33 1.33 0 001.75 0L40 5.59V28c0 .74-.6 1.33-1.33 1.33z"/></symbol><symbol id="icon-facebook" viewBox="0 0 32 32"><path d="M21.33 5.31h2.92V.22a36.48 36.48 0 00-4.1-.22h-.16c-4.2 0-7.1 2.65-7.1 7.52V12H8.26v5.69h4.65V32h5.7V17.69h4.45l.71-5.69H18.6V8.08c0-1.64.45-2.77 2.74-2.77z"/></symbol><symbol id="icon-instagram" viewBox="0 0 32 32"><path d="M31.97 9.4c-.08-1.7-.35-2.86-.75-3.87a7.84 7.84 0 00-1.84-2.84A7.9 7.9 0 0026.6.86l-.06-.02C25.52.44 24.36.18 22.66.1c-1.71-.08-2.25-.1-6.6-.1-4.34 0-4.89.02-6.6.1-1.7.07-2.86.34-3.88.74a7.85 7.85 0 00-2.83 1.85A7.9 7.9 0 00.91 5.46l-.02.06A11.7 11.7 0 00.16 9.4c-.08 1.71-.1 2.26-.1 6.6 0 4.35.02 4.9.09 6.6.08 1.7.35 2.87.74 3.88a7.92 7.92 0 001.85 2.84c.8.81 1.77 1.44 2.84 1.84 1.01.4 2.18.67 3.88.75 1.7.07 2.25.09 6.6.09 4.34 0 4.88-.02 6.59-.1a11.7 11.7 0 003.88-.74 8.24 8.24 0 004.66-4.63l.02-.05c.4-1.02.67-2.18.75-3.88.07-1.7.09-2.25.09-6.6s0-4.88-.08-6.6zm-2.88 13.07a8.8 8.8 0 01-.55 2.97 5.34 5.34 0 01-3 3.03l-.04.01c-.56.22-1.41.48-2.97.55-1.69.08-2.2.1-6.47.1-4.26 0-4.78-.02-6.46-.1a8.78 8.78 0 01-2.97-.55 4.95 4.95 0 01-1.84-1.2 4.98 4.98 0 01-1.18-1.8l-.01-.03a8.84 8.84 0 01-.55-2.97c-.08-1.69-.1-2.2-.1-6.46 0-4.27.02-4.79.1-6.47.07-1.56.33-2.4.55-2.97a4.9 4.9 0 011.2-1.83 4.97 4.97 0 011.8-1.19h.04A8.8 8.8 0 019.6 3c1.68-.07 2.2-.1 6.46-.1 4.28 0 4.78.03 6.46.1 1.57.07 2.41.33 2.97.55a4.91 4.91 0 011.84 1.2c.53.52.94 1.14 1.2 1.84.21.56.48 1.4.55 2.96.07 1.7.09 2.2.09 6.47s-.02 4.77-.1 6.46z"/><path d="M16.06 7.78A8.22 8.22 0 007.84 16a8.22 8.22 0 1016.44 0 8.22 8.22 0 00-8.22-8.22zm0 13.55a5.33 5.33 0 010-10.66 5.33 5.33 0 110 10.67zM26.52 7.46a1.92 1.92 0 01-3.84 0 1.92 1.92 0 013.84 0z"/></symbol><symbol id="icon-linkedin" viewBox="0 0 32 32"><path d="M32 32V20.26c0-5.74-1.24-10.16-7.95-10.16-3.22 0-5.39 1.77-6.27 3.45h-.1v-2.92h-6.36V32h6.62V21.42c0-2.79.53-5.48 3.98-5.48 3.4 0 3.45 3.18 3.45 5.66V32H32zM.52 10.63h6.63V32H.53V10.63zM3.84 0A3.84 3.84 0 000 3.84a3.88 3.88 0 003.84 3.88c2.12 0 3.85-1.76 3.85-3.88S5.96 0 3.84 0z"/></symbol><symbol id="icon-logo-1" viewBox="0 0 29 32"><path d="M3.84 0l4.68 4.43h13.04v12.35l4.68 4.43V0H3.84z"/><path d="M0 4.24v20.6h21.76v-8.19L8.66 4.25H0zm17.61 17.59H3.44V7.97h1V20.9h13.17v.94zM6.27 28.66l.52-1.08h.44l-.77 1.44v.84h-.4v-.84l-.76-1.44h.44l.53 1.08zm2.24.67h-.88l-.18.53h-.41l.86-2.28h.35l.86 2.28H8.7l-.19-.53zM7.74 29h.66l-.33-.94-.33.94zm2.33.23c0-.1.03-.2.09-.28.05-.1.17-.2.34-.32a1.5 1.5 0 01-.19-.27v-.01a.57.57 0 01-.05-.23c0-.18.05-.32.16-.42s.26-.16.44-.16a.57.57 0 01.4.15c.11.1.16.22.16.36a.5.5 0 01-.07.27.86.86 0 01-.23.23l-.16.12.44.51a.91.91 0 00.1-.41h.33c0 .28-.07.5-.2.69l.33.4h-.44l-.12-.16a.93.93 0 01-.56.18h-.03a.79.79 0 01-.54-.18.6.6 0 01-.2-.44v-.02zm.75.35a.58.58 0 00.36-.13l-.5-.59-.04.04c-.13.1-.2.2-.2.32 0 .1.04.2.11.26a.38.38 0 00.25.1h.02zm-.2-1.47c0 .09.05.2.15.33l.18-.12.05-.04a.28.28 0 00.1-.2v-.02a.2.2 0 00-.07-.15.23.23 0 00-.17-.06h-.01a.22.22 0 00-.17.07.28.28 0 00-.07.18v.01zm4.13 1c-.03.24-.12.43-.27.57s-.37.2-.62.2a.9.9 0 01-.48-.13.86.86 0 01-.32-.36 1.3 1.3 0 01-.12-.55v-.22c0-.21.04-.4.11-.57a.87.87 0 01.33-.37.91.91 0 01.5-.14c.24 0 .45.07.6.2s.24.34.27.59h-.4c-.02-.17-.06-.28-.14-.36-.08-.07-.19-.1-.34-.1a.46.46 0 00-.4.18c-.09.13-.13.31-.13.56v.2c0 .24.04.43.13.56s.22.2.38.2.28-.04.35-.11.13-.19.15-.35h.4zm2.17-.34c0 .22-.04.42-.12.59a.88.88 0 01-.33.39.9.9 0 01-.5.13.92.92 0 01-.49-.13.9.9 0 01-.33-.38v-.01a1.33 1.33 0 01-.12-.55v-.15c0-.23.04-.42.12-.6s.19-.3.33-.38c.14-.1.3-.14.5-.14a.88.88 0 01.82.52c.08.17.12.36.12.58v.13zm-.4-.12a1 1 0 00-.14-.58.47.47 0 00-.39-.2h-.03a.47.47 0 00-.39.2.97.97 0 00-.14.57v.13c0 .25.04.45.14.58s.23.2.4.2c.18 0 .32-.06.41-.2a1 1 0 00.14-.58v-.12z"/></symbol><symbol id="icon-logo-2" viewBox="0 0 25 32"><path d="M10.45 1.8h.08c.16 0 .32.02.5.04a13.96 13.96 0 012.17.33V.4A12.43 12.43 0 0011 .05h-.05C10.7.01 10.38 0 10.06 0h-.28C8.26 0 6.74.2 5.27.58a18.27 18.27 0 00-4.8 1.95v17.48a18.92 18.92 0 014.44-1.75l.13-.03a19.1 19.1 0 013.78-.59h.11l.65-.02v-1.79c-1.78.02-3.5.26-5.13.7l.15-.04c-.6.16-1.19.33-1.73.51l-.63.22V3.59l.27-.13c1.89-.92 4.1-1.51 6.43-1.65h.1l.74-.02h.28l.39.02z"/><path d="M14.84 3.65h-.02c-.91 0-1.81-.08-2.68-.22h.1c-.29-.04-.56-.1-.82-.16v17.28c1.12.28 2.27.41 3.42.4a18.45 18.45 0 004.65-.6l-.13.02a18.3 18.3 0 004.87-2l-.08.05V1.27a19.02 19.02 0 01-4.43 1.75l-.14.03a19.34 19.34 0 01-4.74.61zm6.9.3l.63-.2v13.62l-.27.13c-.9.44-1.96.83-3.06 1.12l-.12.02a16.52 16.52 0 01-4.08.53c-.4 0-.81-.02-1.21-.05l-.43-.04V5.06l.5.04c.36.02.74.03 1.14.03a21.13 21.13 0 005.32-.7l-.14.04a28.13 28.13 0 001.73-.52zM1.69 25.98a.92.92 0 00-.66-.28H.98c-.14 0-.27.03-.4.08H.6a.9.9 0 00-.5.5l-.01.01a1 1 0 00-.07.39V29c0 .17.02.33.09.48.06.12.14.23.23.31a.82.82 0 00.32.17c.12.03.24.05.35.05a.98.98 0 00.97-.99v-.26h-.61V29c0 .07-.01.13-.04.2v-.01a.38.38 0 01-.08.13.43.43 0 01-.26.1.3.3 0 01-.29-.13.55.55 0 01-.08-.3V26.8a.74.74 0 01.08-.35.31.31 0 01.26-.15h.04c.12 0 .2.06.27.14a.5.5 0 01.1.3V26.95h.6v-.25c0-.14-.02-.28-.07-.4a.95.95 0 00-.2-.32zm3.63-.03a1.05 1.05 0 00-1.06-.19.96.96 0 00-.55.51 1.08 1.08 0 00-.1.46v2.24c0 .16.03.31.1.46a.89.89 0 00.23.3.96.96 0 00.32.2 1.05 1.05 0 001.06-.2.95.95 0 00.23-.3c.06-.15.1-.3.09-.46V26.7c0-.16-.03-.3-.1-.44h.01a1.02 1.02 0 00-.23-.32zm-.28 3.02V29a.4.4 0 01-.13.3.45.45 0 01-.57 0 .4.4 0 01-.12-.33V26.7a.4.4 0 01.12-.3.45.45 0 01.58 0 .4.4 0 01.12.33v2.24zm5.04 1v-4.24H9.5l-.78 2.24-.78-2.24h-.58v4.24h.6v-2.58h.01l.6 1.82h.3l.6-1.82v2.58h.61zm3.44-3.94a.83.83 0 00-.34-.24 1.31 1.31 0 00-.42-.06h-.92v4.24h.6V28.3h.32c.19.01.37-.03.54-.11a.88.88 0 00.33-.32 1 1 0 00.14-.38c.02-.13.03-.28.03-.44v-.04a2.43 2.43 0 00-.06-.6.9.9 0 00-.22-.4zm-.3 1.29a.54.54 0 01-.07.22.34.34 0 01-.15.15.62.62 0 01-.26.05H12.43V26.3H12.77c.09 0 .17.02.24.05a.35.35 0 01.14.16.62.62 0 01.06.23v.58h-.01zm3.16-1.6h-.5l-.92 4.25h.6l.18-.91h.82l.18.9h.6l-.96-4.23zm-.55 2.76l.3-1.54.3 1.54h-.6zm4.46-.2h-.01l-.92-2.55h-.58v4.24h.6v-2.55h.02l.92 2.55h.57v-4.24h-.6v2.55zm3.69-2.55l-.49 1.69h-.01l-.49-1.7h-.64l.83 2.46v1.79h.6v-1.8l.84-2.44h-.64zM0 31.17h.3v.81h.19v-.81h.29V31H0v.17zM2.45 31l-.39.98h.21l.09-.22h.39l.08.22h.22l-.4-.98h-.2zm-.03.6l.13-.37.14.36h-.27zm2.45.02h.22v.13a.38.38 0 01-.23.08h-.01a.25.25 0 01-.2-.1.4.4 0 01-.07-.23v-.02c0-.22.1-.33.28-.33h.02c.1 0 .18.07.2.16l.2-.04c-.04-.2-.18-.29-.42-.29h-.01a.5.5 0 00-.33.13.48.48 0 00-.14.38v.02c0 .13.04.25.12.35.09.08.21.14.34.14h.05a.6.6 0 00.4-.16v-.38h-.42v.16zM7.34 31h-.2v.98h.69v-.16h-.5V31zm2.09 0h-.2v.98h.2V31zm2.04.66l-.4-.66h-.2v.98h.19v-.64l.4.64h.2V31h-.2v.66zm1.85-.11h.49v-.17h-.5v-.21h.53V31h-.72v.98h.74v-.16h-.55v-.27zm4.47-.16h-.39v-.4h-.2v1h.2v-.44h.4v.43h.19V31h-.2v.38zm1.86.16h.5v-.17h-.5v-.21h.53V31h-.73v.98h.75v-.16h-.55v-.27zm2.52 0c.17-.03.26-.12.26-.27a.23.23 0 00-.1-.22.56.56 0 00-.25-.06H21.62v.98h.2v-.4h.06l.1.01a.2.2 0 01.07.07l.22.32h.23l-.12-.2a.7.7 0 00-.21-.23zm-.2-.14h-.15v-.24h.16a.52.52 0 01.2.02.13.13 0 010 .2.54.54 0 01-.17.02h-.04zm2.1.14h.49v-.17h-.5v-.21h.54V31h-.73v.98h.75v-.16h-.55v-.27z"/></symbol><symbol id="icon-logo-3" viewBox="0 0 31 32"><path d="M4.72 31.1a.1.1 0 01.06.03l.15.16c-.11.13-.26.23-.43.3a1.53 1.53 0 01-.6.11h-.04a1.5 1.5 0 01-.55-.1 1.25 1.25 0 01-.7-.72v-.01a1.6 1.6 0 01-.1-.55v-.05c0-.2.04-.38.1-.56v.01a1.32 1.32 0 01.76-.73c.19-.07.39-.1.6-.1a1.47 1.47 0 01.54.09c.15.06.3.15.41.26l-.13.17a.13.13 0 01-.03.03.08.08 0 01-.04.01.1.1 0 01-.06-.02l-.07-.04-.1-.06a1.02 1.02 0 00-.3-.1 1.23 1.23 0 00-.2-.02h-.04c-.15 0-.3.03-.42.08a.96.96 0 00-.33.21 1 1 0 00-.21.34 1.25 1.25 0 00-.08.46c0 .15.02.3.08.46a1 1 0 00.21.34.86.86 0 00.32.2c.12.06.26.08.4.08l.23-.01a.88.88 0 00.5-.24.12.12 0 01.07-.03zm4.42-.8c0 .19-.03.38-.1.56a1.25 1.25 0 01-.29.44 1.31 1.31 0 01-.44.29H8.3a1.7 1.7 0 01-1.18 0h.02a1.33 1.33 0 01-.45-.29 1.3 1.3 0 01-.3-.43v-.01a1.61 1.61 0 010-1.15v.01a1.34 1.34 0 01.3-.44 1.32 1.32 0 01.44-.28 1.67 1.67 0 011.18 0H8.3a1.29 1.29 0 01.74.72c.07.19.1.38.1.58zm-.4 0v-.03c0-.15-.02-.3-.07-.44v.01a.9.9 0 00-.52-.55 1.22 1.22 0 00-.86 0 .9.9 0 00-.52.54v.01a1.47 1.47 0 000 .91.9.9 0 00.52.55c.28.1.58.1.85 0a.9.9 0 00.32-.2.97.97 0 00.21-.35 1.29 1.29 0 00.07-.45zm3.42.47l.04.1.05-.1.05-.1.97-1.69c.02-.03.04-.05.06-.05a.23.23 0 01.06-.01h.31v2.75h-.34V29.47l-.99 1.72a.15.15 0 01-.05.06.16.16 0 01-.09.02h-.06a.15.15 0 01-.14-.08l-1-1.74v2.22h-.34v-2.75h.3a.22.22 0 01.07 0 .1.1 0 01.05.06l1 1.7.05.09zm3.68-.13v1.03h-.38v-2.75h.89c.15 0 .3.02.45.06h-.01a.93.93 0 01.34.17.7.7 0 01.19.27.93.93 0 01.06.35.84.84 0 01-.07.35.77.77 0 01-.2.28.95.95 0 01-.34.18 1.5 1.5 0 01-.47.07l-.46-.01zm0-.3h.47c.1 0 .2-.01.3-.04a.63.63 0 00.2-.12.5.5 0 00.13-.18.56.56 0 00.05-.22v-.04a.5.5 0 00-.04-.2.54.54 0 00-.13-.18.76.76 0 00-.52-.15h-.46v1.13zM21 31.67h-.31a.13.13 0 01-.08-.02.17.17 0 01-.05-.07l-.26-.66H19l-.28.66a.15.15 0 01-.04.06.14.14 0 01-.09.03h-.3l1.15-2.75h.4l1.16 2.75zm-1.9-1.02h1.08l-.45-1.12a1.84 1.84 0 01-.09-.25v-.01l-.04.14a1.28 1.28 0 01-.05.13l-.45 1.11zm3.55-1.72l.06.05 1.67 2.08v-2.14h.34v2.75h-.2a.16.16 0 01-.07-.01.23.23 0 01-.06-.05l-1.67-2.08a.75.75 0 010 .1v2.04h-.34v-2.75h.2l.07.01zm4.9 1.65v1.1h-.39v-1.1l-1.05-1.66h.35c.02 0 .05 0 .07.02a.25.25 0 01.05.06l.67 1.07a1.36 1.36 0 01.11.25l.05-.12a.93.93 0 01.07-.13l.65-1.07a.28.28 0 01.05-.06.12.12 0 01.08-.03h.35l-1.06 1.67zm-15.57-6.29l.5.05c2.59-1.1 4.77-2.9 6.29-5.18s2.29-4.93 2.23-7.62l-2.85-2.71a15 15 0 01-.82 8.67l.04-.1a15.84 15.84 0 01-5.39 6.9z"/><path d="M10.95 24.17l.08.01a15.35 15.35 0 005.7-7.1 14.29 14.29 0 00.5-9.03l.02.1-4.06-3.86a17.7 17.7 0 011.9 10.33v-.08a18.22 18.22 0 01-4.14 9.63zm13.75-9.45a13.98 13.98 0 01-4.77 7.62 14.98 14.98 0 01-2.19 1.51l-.07.04a13.58 13.58 0 005.28-2.85l-.01.01a12.77 12.77 0 003.38-4.68l.03-.08-1.65-1.57z"/><path d="M24.06 14.29l-2.34-2.23a13.68 13.68 0 01-2.23 7.25l.03-.06a14.68 14.68 0 01-5.73 5.14h.01c.53 0 1.05-.03 1.58-.09a14.47 14.47 0 005.64-3.95l.02-.02a13.4 13.4 0 003-5.95l.02-.1zM11.29 2.66L8.5 0C6 .92 3.86 2.54 2.34 4.64S.01 9.22 0 11.78c.01 2.81 1 5.55 2.83 7.77s4.37 3.79 7.24 4.47A17.44 17.44 0 0011.3 2.66zm19.22 11.22c0-3.35-1.4-6.55-3.89-8.91s-5.84-3.7-9.35-3.7a13.67 13.67 0 00-4.74.83l17.1 16.3c.56-1.34.88-2.9.88-4.52z"/></symbol><symbol id="icon-logo-4" viewBox="0 0 60 32"><path d="M9.23 9.55a3.01 3.01 0 00-3.05 2.97 3.01 3.01 0 003.05 2.97 3.01 3.01 0 003.05-2.97 3.01 3.01 0 00-3.05-2.97zm22.5-.95a8.5 8.5 0 00-2.59-6.08A8.95 8.95 0 0022.91 0c-2.34 0-4.58.91-6.24 2.52s-2.58 3.8-2.59 6.08v12.57S31.73 19.24 31.73 8.6zM0 25.29a5.9 5.9 0 001.8 4.23 6.22 6.22 0 004.34 1.75 6.21 6.21 0 004.34-1.75 5.9 5.9 0 001.8-4.23v-8.74S0 17.88 0 25.29zm6.14 1.57c-.33 0-.64-.1-.9-.27a1.58 1.58 0 01-.58-.7 1.51 1.51 0 01-.1-.92v.01a1.56 1.56 0 01.44-.8 1.64 1.64 0 012.47.24 1.55 1.55 0 01.15 1.48 1.56 1.56 0 01-.86.84 1.61 1.61 0 01-.62.12zm12.53-.98h-1.25v1.3h-.66v-3.17h2.07v.53h-1.41v.82h1.25v.53zm3.14-.21c0 .3-.05.58-.16.82s-.27.42-.48.54a1.29 1.29 0 01-.68.2h-.02c-.27 0-.5-.07-.7-.2a1.27 1.27 0 01-.48-.53 1.84 1.84 0 01-.18-.79v-.18c0-.32.06-.6.17-.83a1.26 1.26 0 01.48-.55c.2-.12.44-.19.7-.19s.5.06.7.2c.21.12.37.3.48.54s.17.51.17.82v.14zm-.66-.15c0-.33-.06-.58-.18-.76a.58.58 0 00-.48-.26h-.05a.58.58 0 00-.48.26c-.12.17-.18.42-.19.75v.16c0 .32.06.57.18.75s.3.27.52.27h.02c.2 0 .38-.1.48-.26.12-.17.18-.42.18-.75v-.16zm2.79.83v-.02a.33.33 0 00-.13-.26 1.67 1.67 0 00-.48-.21 3.36 3.36 0 01-.55-.23h.02c-.36-.19-.55-.45-.55-.78 0-.17.05-.32.15-.46s.23-.24.42-.31a1.59 1.59 0 011.21 0 .95.95 0 01.41.35c.1.15.15.32.15.52h-.65a.42.42 0 00-.14-.34.56.56 0 00-.39-.13.59.59 0 00-.37.1.32.32 0 00-.13.27c0 .1.05.2.15.26.1.07.26.14.46.2.38.11.65.25.82.42s.25.37.25.61c0 .28-.1.5-.31.65s-.49.24-.84.24c-.24 0-.47-.05-.67-.14a1.08 1.08 0 01-.45-.36.93.93 0 01-.16-.53v-.02h.65c0 .35.21.53.63.53a.62.62 0 00.37-.1.31.31 0 00.13-.25v-.01zm3.49-1.81h-.98v2.64h-.65v-2.64h-.96V24h2.59v.53zm2.28 1.27h-1.25v.85h1.47v.52H27.8v-3.17h2.13v.53h-1.47v.75h1.25v.52zm1.78.2h-.52v1.17h-.66v-3.17h1.18c.38 0 .67.08.87.25s.3.4.3.7a1 1 0 01-.13.55.95.95 0 01-.42.34h-.01l.69 1.3v.03h-.7l-.6-1.16zm-.52-.52h.53c.16 0 .29-.04.38-.12a.45.45 0 00.13-.33v-.02a.47.47 0 00-.13-.35c-.08-.1-.21-.13-.39-.13h-.52v.95zm3.96.57v1.12h-.65v-3.17h1.24c.23 0 .44.04.62.13a.98.98 0 01.57.92c0 .31-.1.56-.32.74-.22.18-.5.26-.89.26h-.57zm0-.53h.59c.17 0 .3-.04.39-.12.1-.08.14-.2.14-.35v-.02a.52.52 0 00-.14-.36.52.52 0 00-.38-.14h-.6v1zm4.14.28H37.8v.85h1.48v.52h-2.13v-3.17h2.12v.53h-1.47v.75h1.26v.52zm3.03-1.27h-.97v2.64h-.65v-2.64h-.96V24h2.58v.53zm2.29 1.26h-1.26v.85h1.48v.53h-2.13v-3.17h2.12v.53h-1.47v.75h1.26v.52zm1.78.22h-.53v1.16H45v-3.17h1.18c.38 0 .67.08.87.25s.3.4.3.7a.98.98 0 01-.14.55.96.96 0 01-.42.34l.68 1.3v.03h-.7l-.6-1.16zm-.53-.53h.53c.17 0 .3-.04.38-.13a.45.45 0 00.14-.32v-.02a.47.47 0 00-.13-.35c-.09-.1-.21-.13-.4-.13h-.52v.95zm3.85.86v-.02a.33.33 0 00-.13-.26 1.67 1.67 0 00-.47-.22 3.36 3.36 0 01-.56-.22h.02c-.36-.19-.54-.45-.54-.78 0-.17.04-.32.14-.46s.24-.24.42-.31a1.58 1.58 0 011.21 0 .95.95 0 01.42.35c.1.15.14.32.14.52h-.65a.42.42 0 00-.14-.34.56.56 0 00-.38-.13.6.6 0 00-.38.1.32.32 0 00-.13.27c0 .1.05.2.15.26.11.07.26.14.47.2.37.11.64.25.8.42s.26.37.26.61c0 .28-.1.5-.3.65s-.5.23-.85.23c-.24 0-.46-.04-.66-.13a1.09 1.09 0 01-.46-.36.93.93 0 01-.16-.53v-.02h.65c0 .35.21.53.63.53a.62.62 0 00.37-.1.31.31 0 00.13-.25v-.01z"/></symbol><symbol id="icon-logo-5" viewBox="0 0 40 32"><path d="M3.06 26.74c.15.2.24.44.23.69v.05c0 .33-.14.62-.36.82a1.57 1.57 0 01-1.06.32H0v-4.36h1.83a1.55 1.55 0 011.01.29 1 1 0 01.35.81c.02.24-.06.48-.2.67a.99.99 0 01-.56.34c.24.04.47.18.63.37zm-2.2-.66h.79a.73.73 0 00.5-.14.52.52 0 00.16-.38v-.08a.54.54 0 00-.16-.4.75.75 0 00-.52-.14H.88v1.14zm1.36 1.68a.54.54 0 00.19-.41v-.07a.55.55 0 00-.2-.41.8.8 0 00-.47-.16H.87v1.2h.83a.82.82 0 00.52-.15zm4.57.86l-1.02-1.7H5.4v1.7h-.87v-4.36h1.65a1.62 1.62 0 011.16.37 1.4 1.4 0 01.11 1.8 1.34 1.34 0 01-.78.44l1.08 1.75H6.8zm-1.4-2.3h.72c.5 0 .74-.22.74-.66v-.04a.65.65 0 00-.18-.45.77.77 0 00-.57-.18h-.72l.01 1.33zm6.18 1.42H9.83l-.31.88H8.6l1.6-4.32h1l1.59 4.32h-.92l-.3-.88zm-.24-.66l-.63-1.84-.64 1.84h1.27zm6.22 1.54h-.87l-1.95-2.97v2.97h-.86v-4.36h.86l1.95 2.98v-2.98h.87v4.36zm4.95-1.05c-.18.33-.45.6-.77.77h-.01a2.54 2.54 0 01-1.22.28h-1.55v-4.37h1.61c.42 0 .82.1 1.17.28h-.01c.33.16.6.43.78.75a2.51 2.51 0 010 2.3zm-1-.1a1.6 1.6 0 000-2.08 1.5 1.5 0 00-1.08-.37h-.6v2.82h.6a1.5 1.5 0 001.09-.37zM12.12 0s11.2 4.25 10.97 10.39v10.4s-11.2-4.26-10.96-10.4V0zm20.94 18.35a15.15 15.15 0 017.05-2.63h.07v-3.26a14.7 14.7 0 00-7.08 5.83l-.04.06z"/><path d="M31.78 19.33a15.33 15.33 0 018.28-7.51l.11-.04V2.41S24.22 8.46 24.55 17.2V32s.72-.28 1.83-.79c0-.47 0-.95.05-1.43a15.39 15.39 0 015.33-10.44l.02-.02z"/><path d="M30.27 24.82a15.3 15.3 0 01.55-3.03 14.24 14.24 0 00-3.37 8.93v.01A44.08 44.08 0 0030.73 29l-.22.12a14.94 14.94 0 01-.24-4.34v.05zm.63.06a14.8 14.8 0 00.21 3.97l-.01-.1c4.35-2.61 9.25-6.66 9.06-11.55v-.42a14.27 14.27 0 00-8.3 3.9l.01-.01a14.23 14.23 0 00-.97 4.16v.05z"/></symbol><symbol id="icon-logo-6" viewBox="0 0 62 32"><path d="M31.12 14.85a2.25 2.25 0 01-.4-1.43v-2.07c0-.64.14-1.12.4-1.45s.72-.5 1.36-.5c.6 0 1.03.15 1.28.43.27.36.4.8.38 1.24v.49h-1.08V11c0-.15-.01-.3-.03-.44v.02a.48.48 0 00-.15-.29.57.57 0 00-.35-.11h-.05a.62.62 0 00-.4.12.57.57 0 00-.18.31 2.6 2.6 0 00-.04.52v2.52a1.43 1.43 0 00.14.71.53.53 0 00.2.17.54.54 0 00.29.04.55.55 0 00.38-.12.52.52 0 00.16-.3l.03-.5v-.52h1.08v.47a2.02 2.02 0 01-.38 1.3c-.24.31-.67.46-1.28.46s-1.1-.16-1.36-.5zm4.49.03c-.27-.33-.41-.8-.41-1.42v-2.18c0-.62.14-1.09.4-1.4s.73-.48 1.37-.48c.64 0 1.09.16 1.36.48.27.31.41.78.41 1.4v2.18c0 .62-.14 1.09-.42 1.41-.27.33-.72.5-1.35.5s-1.09-.17-1.36-.5zm1.86-.53c.1-.2.15-.42.13-.64v-2.75a1.28 1.28 0 00-.13-.57v.01a.53.53 0 00-.21-.17.53.53 0 00-.3-.04h.01a.55.55 0 00-.29.04.53.53 0 00-.21.17 1.24 1.24 0 00-.13.63v2.69a1.29 1.29 0 00.13.64.67.67 0 00.22.16.7.7 0 00.56 0 .67.67 0 00.22-.16zm2.57-4.88h1.16l.87 4.03.89-4.03h1.13l.11 5.81h-.83l-.1-4.04-.85 4.04h-.67l-.9-4.05-.08 4.05h-.84l.1-5.81zm5.46 0h1.8c1.05 0 1.57.55 1.57 1.65 0 1.05-.55 1.58-1.65 1.58h-.61v2.58h-1.12l.01-5.81zm1.54 2.48c.11.02.23 0 .33-.03a.78.78 0 00.29-.15 1.01 1.01 0 00.16-.66v-.06a2 2 0 00-.06-.48v.01a.42.42 0 00-.08-.16.48.48 0 00-.14-.11 1.05 1.05 0 00-.5-.1h-.43v1.74h.43zm3.43-2.48h1.2l1.23 5.81h-1.04l-.24-1.34h-1.07l-.25 1.34h-1.05l1.22-5.81zm1.03 3.8l-.42-2.44-.42 2.44h.84zm2.4-3.8h.77l1.5 3.31V9.47h.92v5.81h-.74l-1.5-3.46v3.46h-.96V9.47zm5.36 3.6l-1.24-3.6h1.04l.76 2.31.71-2.3h1.02l-1.22 3.58v2.22h-1.07v-2.22zm-26.41 4.75v.3h-.92v2.37h-.38v-2.36h-.91v-.3h2.2zm2.85 2.67h-.3a.12.12 0 01-.08-.03.13.13 0 01-.05-.06l-.26-.63h-1.26l-.27.63a.18.18 0 01-.04.07.12.12 0 01-.07.03h-.3l1.11-2.67h.39l1.13 2.66zm-1.85-1h1.05l-.44-1.08a1.9 1.9 0 01-.08-.23v-.02l-.05.14-.04.11-.44 1.09zm3.77.74h.2l.19-.04a1.3 1.3 0 00.17-.05h-.01l.15-.06v-.6h-.45a.08.08 0 01-.06-.02.06.06 0 01-.02-.05v-.2h.86v1.02a1.61 1.61 0 01-.46.21 1.75 1.75 0 01-.28.06 2.9 2.9 0 01-.33.02h-.01c-.2 0-.39-.04-.56-.1a1.34 1.34 0 01-.44-.28 1.3 1.3 0 01-.28-.41v-.01a1.42 1.42 0 01-.1-.54v-.03c0-.2.03-.38.1-.55a1.22 1.22 0 01.72-.7 1.71 1.71 0 01.6-.09 2.01 2.01 0 01.58.09 1.2 1.2 0 01.22.1l.2.15-.11.16a.1.1 0 01-.04.04.1.1 0 01-.05.01.14.14 0 01-.07-.02 1.28 1.28 0 01-.11-.07.9.9 0 00-.14-.06 1.21 1.21 0 00-.2-.06h-.01a1.5 1.5 0 00-.27-.03h-.02c-.16 0-.3.03-.43.08a.91.91 0 00-.32.2.92.92 0 00-.2.34 1.34 1.34 0 000 .9v-.01c.04.12.12.24.21.33a.94.94 0 00.33.21c.14.05.3.07.44.06zm3.55-.05h1.22v.3h-1.6v-2.66h.39v2.36zm2.49.3h-.39v-2.66h.39v2.67zm1.41-2.65a.2.2 0 01.06.05l1.63 2.01v-2.08h.33v2.68h-.2a.17.17 0 01-.07-.02.27.27 0 01-.06-.05l-1.63-2v2.07h-.32v-2.67h.2l.06.01zm4.83 0v.29h-1.35V19h1.1v.28h-1.1v.9h1.35v.3h-1.74v-2.66h1.74zM9.95 1.35L26.88 5.9v15.95L9.95 17.3V1.36zM8.87 0v18.08l19.1 5.14V5.14L8.86 0z"/><path d="M19.1 31.61L0 26.47V8.4l19.1 5.14V31.6zM9.18 1.16l16.7 4.49-7.1 6.73-16.7-4.5 7.1-6.73zM8.87 0L0 8.4l19.1 5.13 8.86-8.4L8.86 0zm11.3 30.6l7.8-7.38-7.8-2.1v9.47z"/></symbol><symbol id="icon-phone" viewBox="0 0 20 32"><path d="M17 0H3a3 3 0 00-3 3v26a3 3 0 003 3h14a3 3 0 003-3V3a3 3 0 00-3-3zM3 2h14a1 1 0 011 1v21H2V3a1 1 0 011-1zm14 28H3a1 1 0 01-1-1v-3h16v3a1 1 0 01-1 1z"/></symbol><symbol id="icon-twitter" viewBox="0 0 32 32"><path d="M32 6.08c-1.1.5-2.38.86-3.71 1.03h-.07a6.56 6.56 0 002.87-3.58l.01-.04a12.88 12.88 0 01-4.07 1.57l-.09.02A6.56 6.56 0 0015.6 9.55c0 .52.04 1.02.15 1.5A18.57 18.57 0 012.23 4.2a6.52 6.52 0 00-.9 3.3v.01a6.57 6.57 0 002.91 5.45 6.45 6.45 0 01-3-.82l.04.01v.08a6.6 6.6 0 005.21 6.44h.05a6.4 6.4 0 01-1.67.22h-.06c-.41 0-.84-.02-1.24-.11a6.62 6.62 0 006.13 4.57 13.1 13.1 0 01-8.12 2.8H1.51c-.53 0-1.06-.04-1.57-.1H0A18.3 18.3 0 0010 29h.07c12.07 0 18.67-10 18.67-18.67 0-.29-.01-.57-.03-.85a13.2 13.2 0 003.26-3.35l.03-.05z"/></symbol></defs></svg>